
<svg xmlns="http://www.w3.org/2000/svg" id="Layer_1" data-name="Layer 1" viewBox="0 0 24 24" width="25" height="25"><path d="m16.336,13.252l1.33,1.493c-.103.092-2.559,2.254-5.666,2.254s-5.563-2.162-5.666-2.254l1.332-1.491c.018.016,2.003,1.746,4.334,1.746s4.316-1.73,4.336-1.748Zm-7.836-2.252c.828,0,1.5-.672,1.5-1.5s-.672-1.5-1.5-1.5-1.5.672-1.5,1.5.672,1.5,1.5,1.5Zm7,0c.828,0,1.5-.672,1.5-1.5s-.672-1.5-1.5-1.5-1.5.672-1.5,1.5.672,1.5,1.5,1.5Zm8.5,1v12h-12C5.383,24,0,18.617,0,12S5.383,0,12,0s12,5.383,12,12Zm-2,0c0-5.514-4.486-10-10-10S2,6.486,2,12s4.486,10,10,10h10v-10Z"/></svg>
