
<svg xmlns="http://www.w3.org/2000/svg" id="Layer_1" data-name="Layer 1" viewBox="0 0 24 24" width="25" height="25"><path d="m9.007,6.507c0-.828.672-1.5,1.5-1.5s1.5.672,1.5,1.5-.672,1.5-1.5,1.5-1.5-.672-1.5-1.5Zm14.836,8.651c-.706,2.42-1.988,4.604-3.707,6.316-1.618,1.61-3.902,2.534-6.269,2.534h-3.722c-2.366,0-4.65-.924-6.268-2.533-1.718-1.712-3-3.896-3.707-6.317-.36-1.232-.126-2.526.642-3.551.342-.456.765-.824,1.243-1.092-.031-.211-.047-.424-.047-.64,0-1.501.767-2.853,2.008-3.629-.006-.081-.009-.16-.009-.238,0-2.351,2.053-4.266,4.437-3.974C9.186.793,10.526.006,12.008.006s2.822.786,3.564,2.027c2.315-.276,4.345,1.541,4.433,3.819,1.236.781,2.003,2.137,2.003,3.624,0,.337-.041.673-.118,1,.506.271.953.653,1.312,1.13.768,1.024,1.002,2.318.642,3.551ZM4.008,9.874c0,.045.002.089.004.134h9.076c-.057-.159-.088-.33-.088-.508,0-.828.672-1.5,1.5-1.5s1.5.672,1.5,1.5c0,.178-.031.349-.088.508h4.035c.04-.172.061-.35.061-.531,0-.925-.561-1.757-1.429-2.119-.421-.176-.67-.615-.604-1.067.017-.115.032-.197.032-.283,0-1.103-.897-2-2-2-.21,0-.428.041-.664.125-.253.091-.533.075-.774-.043-.242-.118-.427-.329-.511-.585-.297-.896-1.12-1.498-2.051-1.498s-1.755.603-2.052,1.499c-.085.256-.269.466-.511.584-.242.118-.522.134-.774.043-.236-.084-.454-.125-.664-.125-1.103,0-2,.897-2,2,0,.153.026.321.084.529.137.495-.124,1.013-.603,1.198-.899.348-1.48,1.188-1.48,2.14Zm17.593,2.933c-.38-.508-.962-.799-1.597-.799H4.009c-.634,0-1.216.291-1.596.798-.387.516-.504,1.169-.322,1.791.604,2.068,1.739,4.008,3.199,5.46,1.244,1.24,3.015,1.951,4.855,1.951h3.722c1.841,0,3.611-.711,4.857-1.951,1.459-1.454,2.595-3.393,3.198-5.46.182-.622.064-1.275-.322-1.79Z"/></svg>
